<svg version="1" xmlns="http://www.w3.org/2000/svg" width="682.667" height="682.667" viewBox="0 0 512.000000 512.000000"><path d="M41.5 2C21.7 5 6.2 20.3 3.1 40 1.7 48.3 1.6 462.6 3 471.8 5.7 491 22 507.3 41.2 510c9.2 1.4 421.5 1.3 429.8-.1 16.6-2.6 30-13.8 36.2-30.4l2.3-6 .3-213c.2-135-.1-215.3-.7-219.3-3-19.3-19.5-36.1-38.6-39.2C463.4.8 49.1.8 41.5 2zm126.9 38.6c1.2 1.2 1.6 3.8 1.6 11.5v10l3-1.6c7.7-4 17.7.3 22.4 9.6 3.3 6.8 3.4 12 0 18.7-4.6 9.3-14.7 13.7-22.5 9.7-2.7-1.4-3.1-1.4-4.5 0-1.7 1.7-8.1 2-10.4.5-1.3-.8-1.5-5.2-1.5-29.5s.2-28.7 1.5-29.5c2.4-1.5 8.7-1.2 10.4.6zM364 40c1.2.7 1.6 4 1.9 16.1l.3 15.1 4.7-4.5c7.8-7.6 10.7-8 14.5-2.3 2.5 3.8 2 5-3.6 10.1l-5.2 4.7 6.9 6.2 6.9 6.3-1.4 3.2c-.7 1.8-2.3 3.9-3.6 4.7-2 1.4-2.6 1.4-5.1 0-1.5-.8-5-3.7-7.8-6.5-2.7-2.8-5.2-5.1-5.6-5.1-.3 0-1 2.4-1.3 5.2-.8 6.1-1.6 6.8-7.3 6.8-3.2 0-4.5-.5-5.3-1.9-.6-1.2-1-12.2-1-28.6 0-16.4.4-27.4 1-28.6.8-1.4 2.1-1.9 5.3-1.9 2.3 0 4.9.5 5.7 1zm88.8.2c.8.8 1.2 4.8 1.2 11.5 0 5.7.3 10.3.8 10.3.4 0 1.6-.7 2.6-1.5 2.3-1.8 8.3-1.9 12.3-.4 9.8 3.7 15.1 17.2 10.8 27.7-4.1 9.7-15 14.8-22.8 10.7-2.6-1.3-3.1-1.3-5 0-2.6 1.8-8.8 2-10.5.3-1.7-1.7-1.7-56.9 0-58.6.7-.7 3-1.2 5.3-1.2s4.6.5 5.3 1.2zm-120.1 2.3c5.3 1.6 10.3 5.4 10.3 7.9s-5 7.6-7.5 7.6c-1.2 0-3.4-.9-4.8-2-4.5-3.6-11.7-2-11.7 2.5 0 3.2 2.8 4.9 11.9 7 5.5 1.3 8.4 2.7 11 5 3.2 3 3.5 3.8 3.9 9.7.5 8.6-1.9 13.6-8.5 17.5-4.1 2.4-5.9 2.8-12.3 2.8s-8.2-.4-12.2-2.7c-4.9-3-9.4-8.9-8.2-11 1.7-3.1 4.9-5.8 6.8-5.8 1.2 0 4.1 1.6 6.6 3.6 3.6 2.9 5.1 3.4 8.4 3.2 3.2-.2 4.4-.9 5.6-3 1.4-2.6 1.3-2.9-.5-4.8-1.1-1.1-4.6-2.7-7.8-3.5-3.2-.8-7.6-2.4-9.8-3.5-9.8-5-11.5-18.4-3.4-26.5 5.5-5.4 12.9-6.8 22.2-4zm-291.9.7c.5.7 2.9 7.4 5.2 14.8 2.4 7.4 4.6 13.9 5 14.3.4.5 2.9-5.5 5.5-13.2C61.2 45 63 42 67.2 42c3.9 0 6.5 4.4 10.8 17.9 2.3 7.3 4.4 13 4.8 12.6.4-.3 3-7.3 5.7-15.3l5-14.7 3.7-.3c5.2-.4 9.1 3.3 7.9 7.5-3.7 12.2-16.4 47-17.8 48.5-1.8 2-5.4 2.3-8.3.8-1.2-.7-3.4-5.8-6.6-15.5-2.7-7.9-5.1-14.2-5.3-13.9-.3.3-2.8 6.9-5.6 14.7C57 97 56.2 98.6 53.7 99.4c-2.1.8-3.5.7-5.4-.4-2.2-1.3-3.9-5.2-11-25.4C32.8 60.5 29 48.7 29 47.4c0-4 9.2-7.3 11.8-4.2zm214.1.5C257.4 45.8 280 92 280 95c0 2.3-5.3 6-8.8 6-1.7 0-2.9-1.4-5.4-6.5l-3.2-6.5-11.6.1h-11.5l-3 6.2c-1.7 3.5-3.8 6.3-4.7 6.5-2.6.5-8.6-2.7-9.4-5-.7-2.4 21.6-49.4 24.7-52.1 1.2-.9 2.9-1.7 3.9-1.7s2.7.8 3.9 1.7zM141.4 60c5.8 2.8 9 7.9 9 14.2 0 4.3-.4 5.4-2.8 7.4-2.5 2.2-3.6 2.4-13.2 2.4-5.7 0-10.4.4-10.4.8 0 1.6 3.4 4 6.5 4.6 1.7.4 5.4 0 8.3-.7 5.8-1.6 7.5-1 9.1 3.4 2 5.5-3.6 8.9-14.9 8.9-10.7 0-17.1-3.4-21-11-5.7-11.4-1.7-24.5 9.2-29.9 5.7-2.8 14.7-2.8 20.2-.1zM426 60c7 3.6 10.8 12.3 8.1 18.9-1.8 4.1-4.9 5.1-16.2 5.1-9.6 0-9.9.1-8.9 2 1.7 3.2 7.6 4.3 13.9 2.7 5.3-1.4 5.5-1.4 7.8.9 3.1 3.2 3 6.9-.4 9.1-2.1 1.4-4.8 1.8-12.8 1.8-9.5 0-10.4-.2-14.4-2.8-9.1-6-12-21.2-5.9-30.5 5.5-8.3 19.7-11.8 28.8-7.2zm-17.2 78.6l2.2 1.5v175.2l-6.5-.7c-3.5-.4-10.6-.1-15.6.5-37.8 4.6-66.1 30.9-74.3 69.2l-.6 2.7-58.2-.2-58.1-.3-1.3-6.1c-5.3-26.1-24.9-49.4-49.8-59.4-11.4-4.6-20.5-6.3-33.8-6.3H101v-87c0-79.6.1-87.2 1.7-88.9 1.5-1.7 7.6-1.8 152.7-1.8 135.2 0 151.4.2 153.4 1.6zM128.5 340.5c11.3 2.9 20.1 7.9 28.1 15.9 18.8 18.8 22.9 47.2 10.3 71.6-15.4 30-54.5 41.2-83.9 24-32-18.7-39.9-61-16.8-90.5 8.4-10.7 23.3-19.6 36.8-21.8 6.1-1 20-.6 25.5.8zm285 0c11.3 2.9 20.1 7.9 28.1 15.9 18.8 18.7 22.9 47.1 10.4 71.6-15.3 29.9-54.7 41.1-84 24-36.2-21.2-40.5-72.1-8.3-99.1 7.2-6 19.3-11.7 28.3-13.2 6.1-1 20-.6 25.5.8z"/><path d="M172.5 74.5c-1.4 1.3-2.5 3.6-2.5 5 0 3 4.1 7.5 6.8 7.5 2.4 0 6.9-3.5 7.7-6 .3-1-.1-3.2-.9-4.8-2.5-4.9-7.3-5.6-11.1-1.7zM458.2 72.7c-.7.3-1.9 1.8-2.8 3.5-1.3 2.4-1.3 3.5-.4 5.8 3.1 7.4 14 5.1 14-3 0-4.5-6.3-8.1-10.8-6.3zM248.7 69.7c-1.5 2.9-2.7 5.7-2.7 6.3 0 .5 2.2 1 5 1 5.8 0 5.9-.3 2.6-7.5l-2.3-5-2.6 5.2zM126.7 72c-4.5 3.6-3.6 5 3.3 5 4.7 0 6.2-.4 6.7-1.6 1.8-4.6-5.4-7-10-3.4zM410.5 72.5c-4 3.9-3.2 4.6 4.2 4.3 5.3-.2 6.8-.7 7.1-1.9.9-4.8-7.3-6.5-11.3-2.4z"/></svg>